<?xml version="1.0" encoding="utf-8" ?>
<svg baseProfile="full" height="200" version="1.1" width="138" xmlns="http://www.w3.org/2000/svg" xmlns:ev="http://www.w3.org/2001/xml-events" xmlns:xlink="http://www.w3.org/1999/xlink"><defs /><path d="M 137,198 L 136,199 L 135,199 L 137,199 Z" fill="black" /><path d="M 0,196 L 0,199 L 7,199 L 5,199 L 4,198 L 2,198 Z" fill="black" /><path d="M 72,150 L 68,154 L 68,155 L 53,170 L 53,171 L 44,180 L 44,181 L 39,186 L 39,187 L 37,189 L 37,190 L 36,191 L 36,192 L 34,194 L 34,195 L 31,198 L 30,198 L 29,199 L 28,199 L 113,199 L 111,199 L 110,198 L 109,198 L 108,197 L 107,197 L 102,192 L 102,191 L 100,189 L 100,188 L 99,187 L 99,186 L 98,185 L 98,184 L 96,182 L 96,181 L 94,179 L 94,178 L 89,173 L 89,172 L 82,165 L 82,164 L 77,159 L 77,158 L 74,155 L 74,154 L 73,153 L 73,152 L 72,151 Z" fill="black" /><path d="M 0,0 L 0,188 L 0,187 L 1,186 L 1,185 L 3,183 L 3,182 L 5,180 L 5,179 L 7,177 L 7,176 L 11,172 L 11,171 L 15,167 L 15,166 L 20,161 L 20,160 L 33,147 L 34,147 L 80,101 L 80,100 L 86,94 L 86,93 L 88,91 L 88,90 L 89,89 L 89,88 L 87,86 L 86,86 L 85,85 L 84,85 L 83,84 L 82,84 L 80,82 L 79,82 L 77,80 L 76,80 L 75,79 L 74,79 L 72,77 L 71,77 L 68,74 L 67,74 L 63,70 L 63,69 L 62,68 L 62,67 L 61,66 L 61,59 L 65,55 L 84,55 L 85,56 L 105,56 L 106,57 L 107,57 L 108,58 L 109,58 L 110,59 L 111,59 L 122,70 L 122,71 L 124,73 L 124,74 L 126,76 L 126,77 L 128,79 L 128,80 L 129,81 L 129,89 L 128,90 L 128,91 L 127,92 L 127,93 L 125,95 L 125,96 L 86,135 L 86,136 L 84,138 L 92,138 L 93,139 L 96,139 L 97,140 L 98,140 L 99,141 L 100,141 L 101,142 L 102,142 L 111,151 L 111,152 L 113,154 L 113,155 L 115,157 L 115,158 L 117,160 L 117,161 L 118,162 L 118,163 L 120,165 L 120,166 L 121,167 L 121,168 L 123,170 L 123,171 L 126,174 L 126,175 L 133,182 L 133,183 L 136,186 L 136,187 L 137,188 L 137,189 L 137,0 L 78,0 L 79,0 L 80,1 L 81,1 L 83,3 L 83,4 L 84,5 L 84,6 L 85,7 L 85,19 L 84,20 L 84,22 L 83,23 L 83,25 L 82,26 L 82,27 L 81,28 L 81,29 L 80,30 L 80,31 L 79,32 L 79,33 L 78,34 L 78,35 L 77,36 L 77,37 L 75,39 L 75,40 L 72,43 L 72,44 L 66,50 L 66,51 L 56,61 L 55,61 L 51,65 L 50,65 L 47,68 L 46,68 L 40,74 L 40,78 L 41,79 L 41,80 L 42,81 L 42,82 L 44,82 L 46,84 L 47,84 L 48,85 L 49,85 L 50,86 L 51,86 L 52,87 L 53,87 L 56,90 L 57,90 L 59,92 L 59,93 L 61,95 L 61,96 L 63,98 L 63,99 L 64,100 L 64,101 L 65,102 L 65,104 L 66,105 L 66,111 L 64,113 L 64,114 L 62,116 L 61,116 L 59,118 L 58,118 L 57,119 L 42,119 L 41,118 L 38,118 L 37,117 L 36,117 L 34,115 L 33,115 L 9,91 L 9,90 L 6,87 L 6,86 L 5,85 L 5,83 L 4,82 L 4,72 L 5,71 L 5,69 L 6,68 L 6,67 L 7,66 L 7,65 L 8,64 L 8,63 L 9,62 L 9,61 L 21,49 L 22,49 L 29,42 L 29,41 L 33,37 L 33,36 L 36,33 L 36,32 L 39,29 L 39,28 L 42,25 L 42,24 L 45,21 L 45,20 L 48,17 L 48,16 L 52,12 L 52,11 L 60,3 L 61,3 L 63,1 L 64,1 L 65,0 L 66,0 Z" fill="black" /></svg>